<svg xmlns="http://www.w3.org/2000/svg" viewBox="0 0 850 260" width="100%" height="100%" shape-rendering="crispEdges">
  <defs>
    <style>
      @keyframes blink {
        0%, 49% { opacity: 1; }
        50%, 100% { opacity: 0; }
      }
      @keyframes ledFlicker {
        0%, 100% { fill: #39FF14; }
        50% { fill: #008800; }
      }
      @keyframes rotatePulse {
        0% { opacity: 0.3; transform: scale(0.96); }
        50% { opacity: 0.9; transform: scale(1.02); }
        100% { opacity: 0.3; transform: scale(0.96); }
      }
      .font-mono {
        font-family: 'JetBrains Mono', 'Fira Code', 'Courier New', monospace;
      }
      .cursor-blink {
        animation: blink 1s infinite steps(1);
      }
      .status-led {
        animation: ledFlicker 1.5s infinite steps(1);
      }
      .tetra-pulse {
        animation: rotatePulse 3s infinite ease-in-out;
        transform-origin: 700px 120px;
      }
    </style>
  </defs>

  <!-- BACKGROUND: Deep Cyber Void with Grid -->
  <rect width="850" height="260" fill="#0A0E17"/>

  <!-- GRID PATTERN -->
  <g opacity="0.06">
    <line x1="0" y1="0" x2="0" y2="260" stroke="#00F0FF" stroke-width="1"/> <line x1="20" y1="0" x2="20" y2="260" stroke="#00F0FF" stroke-width="1"/> <line x1="40" y1="0" x2="40" y2="260" stroke="#00F0FF" stroke-width="1"/> <line x1="60" y1="0" x2="60" y2="260" stroke="#00F0FF" stroke-width="1"/> <line x1="80" y1="0" x2="80" y2="260" stroke="#00F0FF" stroke-width="1"/> <line x1="100" y1="0" x2="100" y2="260" stroke="#00F0FF" stroke-width="1"/> <line x1="120" y1="0" x2="120" y2="260" stroke="#00F0FF" stroke-width="1"/> <line x1="140" y1="0" x2="140" y2="260" stroke="#00F0FF" stroke-width="1"/> <line x1="160" y1="0" x2="160" y2="260" stroke="#00F0FF" stroke-width="1"/> <line x1="180" y1="0" x2="180" y2="260" stroke="#00F0FF" stroke-width="1"/> <line x1="200" y1="0" x2="200" y2="260" stroke="#00F0FF" stroke-width="1"/> <line x1="220" y1="0" x2="220" y2="260" stroke="#00F0FF" stroke-width="1"/> <line x1="240" y1="0" x2="240" y2="260" stroke="#00F0FF" stroke-width="1"/> <line x1="260" y1="0" x2="260" y2="260" stroke="#00F0FF" stroke-width="1"/> <line x1="280" y1="0" x2="280" y2="260" stroke="#00F0FF" stroke-width="1"/> <line x1="300" y1="0" x2="300" y2="260" stroke="#00F0FF" stroke-width="1"/> <line x1="320" y1="0" x2="320" y2="260" stroke="#00F0FF" stroke-width="1"/> <line x1="340" y1="0" x2="340" y2="260" stroke="#00F0FF" stroke-width="1"/> <line x1="360" y1="0" x2="360" y2="260" stroke="#00F0FF" stroke-width="1"/> <line x1="380" y1="0" x2="380" y2="260" stroke="#00F0FF" stroke-width="1"/> <line x1="400" y1="0" x2="400" y2="260" stroke="#00F0FF" stroke-width="1"/> <line x1="420" y1="0" x2="420" y2="260" stroke="#00F0FF" stroke-width="1"/> <line x1="440" y1="0" x2="440" y2="260" stroke="#00F0FF" stroke-width="1"/> <line x1="460" y1="0" x2="460" y2="260" stroke="#00F0FF" stroke-width="1"/> <line x1="480" y1="0" x2="480" y2="260" stroke="#00F0FF" stroke-width="1"/> <line x1="500" y1="0" x2="500" y2="260" stroke="#00F0FF" stroke-width="1"/> <line x1="520" y1="0" x2="520" y2="260" stroke="#00F0FF" stroke-width="1"/> <line x1="540" y1="0" x2="540" y2="260" stroke="#00F0FF" stroke-width="1"/> <line x1="560" y1="0" x2="560" y2="260" stroke="#00F0FF" stroke-width="1"/> <line x1="580" y1="0" x2="580" y2="260" stroke="#00F0FF" stroke-width="1"/> <line x1="600" y1="0" x2="600" y2="260" stroke="#00F0FF" stroke-width="1"/> <line x1="620" y1="0" x2="620" y2="260" stroke="#00F0FF" stroke-width="1"/> <line x1="640" y1="0" x2="640" y2="260" stroke="#00F0FF" stroke-width="1"/> <line x1="660" y1="0" x2="660" y2="260" stroke="#00F0FF" stroke-width="1"/> <line x1="680" y1="0" x2="680" y2="260" stroke="#00F0FF" stroke-width="1"/> <line x1="700" y1="0" x2="700" y2="260" stroke="#00F0FF" stroke-width="1"/> <line x1="720" y1="0" x2="720" y2="260" stroke="#00F0FF" stroke-width="1"/> <line x1="740" y1="0" x2="740" y2="260" stroke="#00F0FF" stroke-width="1"/> <line x1="760" y1="0" x2="760" y2="260" stroke="#00F0FF" stroke-width="1"/> <line x1="780" y1="0" x2="780" y2="260" stroke="#00F0FF" stroke-width="1"/> <line x1="800" y1="0" x2="800" y2="260" stroke="#00F0FF" stroke-width="1"/> <line x1="820" y1="0" x2="820" y2="260" stroke="#00F0FF" stroke-width="1"/> <line x1="840" y1="0" x2="840" y2="260" stroke="#00F0FF" stroke-width="1"/>
    <line x1="0" y1="0" x2="850" y2="0" stroke="#00F0FF" stroke-width="1"/> <line x1="0" y1="20" x2="850" y2="20" stroke="#00F0FF" stroke-width="1"/> <line x1="0" y1="40" x2="850" y2="40" stroke="#00F0FF" stroke-width="1"/> <line x1="0" y1="60" x2="850" y2="60" stroke="#00F0FF" stroke-width="1"/> <line x1="0" y1="80" x2="850" y2="80" stroke="#00F0FF" stroke-width="1"/> <line x1="0" y1="100" x2="850" y2="100" stroke="#00F0FF" stroke-width="1"/> <line x1="0" y1="120" x2="850" y2="120" stroke="#00F0FF" stroke-width="1"/> <line x1="0" y1="140" x2="850" y2="140" stroke="#00F0FF" stroke-width="1"/> <line x1="0" y1="160" x2="850" y2="160" stroke="#00F0FF" stroke-width="1"/> <line x1="0" y1="180" x2="850" y2="180" stroke="#00F0FF" stroke-width="1"/> <line x1="0" y1="200" x2="850" y2="200" stroke="#00F0FF" stroke-width="1"/> <line x1="0" y1="220" x2="850" y2="220" stroke="#00F0FF" stroke-width="1"/> <line x1="0" y1="240" x2="850" y2="240" stroke="#00F0FF" stroke-width="1"/> <line x1="0" y1="260" x2="850" y2="260" stroke="#00F0FF" stroke-width="1"/>
  </g>

  <!-- OUTER PIXEL BORDER -->
  <rect x="6" y="6" width="838" height="248" fill="none" stroke="#162235" stroke-width="4"/>
  <rect x="12" y="12" width="826" height="236" fill="none" stroke="#00F0FF" stroke-width="2" opacity="0.85"/>
  <!-- Corner Brackets -->
  <rect x="6" y="6" width="24" height="6" fill="#00F0FF"/>
  <rect x="6" y="6" width="6" height="24" fill="#00F0FF"/>
  <rect x="820" y="6" width="24" height="6" fill="#00F0FF"/>
  <rect x="838" y="6" width="6" height="24" fill="#00F0FF"/>
  <rect x="6" y="248" width="24" height="6" fill="#00F0FF"/>
  <rect x="6" y="230" width="6" height="24" fill="#00F0FF"/>
  <rect x="820" y="248" width="24" height="6" fill="#00F0FF"/>
  <rect x="838" y="230" width="6" height="24" fill="#00F0FF"/>

  <!-- TOP CONSOLE STATUS BAR -->
  <rect x="14" y="14" width="822" height="22" fill="#0F1726"/>
  <line x1="14" y1="36" x2="836" y2="36" stroke="#00F0FF" stroke-width="2" opacity="0.6"/>

  <circle cx="28" cy="25" r="4" fill="#39FF14" class="status-led"/>
  <text x="38" y="29" fill="#39FF14" font-size="11" font-weight="bold" class="font-mono">SYS: LAB_ACTIVE</text>

  <rect x="155" y="19" width="2" height="12" fill="#1E293B"/>
  <text x="168" y="29" fill="#8892B0" font-size="11" class="font-mono">ENGINE: GLSCENE / OPENGL</text>

  <rect x="350" y="19" width="2" height="12" fill="#1E293B"/>
  <text x="363" y="29" fill="#8892B0" font-size="11" class="font-mono">IDE: RAD STUDIO 12 C++BUILDER</text>

  <rect x="600" y="19" width="2" height="12" fill="#1E293B"/>
  <text x="613" y="29" fill="#FFE600" font-size="11" font-weight="bold" class="font-mono">BELSU // IICT // MPOIS</text>

  <!-- Top-right HUD buttons -->
  <rect x="765" y="19" width="16" height="12" fill="#1E293B"/>
  <text x="770" y="28" fill="#8892B0" font-size="10" font-weight="bold" class="font-mono">_</text>
  <rect x="787" y="19" width="16" height="12" fill="#1E293B"/>
  <text x="791" y="29" fill="#8892B0" font-size="11" font-weight="bold" class="font-mono">□</text>
  <rect x="809" y="19" width="16" height="12" fill="#FF0055"/>
  <text x="813" y="29" fill="#FFFFFF" font-size="11" font-weight="bold" class="font-mono">×</text>

  <!-- MAIN BRANDING: 3D PIXEL LOGO "ТОКМ" -->
  <g>
    <rect x="48" y="71" width="42" height="6" fill="#050B14"/>
    <rect x="48" y="77" width="42" height="6" fill="#050B14"/>
    <rect x="66" y="83" width="12" height="6" fill="#050B14"/>
    <rect x="66" y="89" width="12" height="6" fill="#050B14"/>
    <rect x="66" y="95" width="12" height="6" fill="#050B14"/>
    <rect x="66" y="101" width="12" height="6" fill="#050B14"/>
    <rect x="66" y="107" width="12" height="6" fill="#050B14"/>
    <rect x="66" y="113" width="12" height="6" fill="#050B14"/>
    <rect x="66" y="119" width="12" height="6" fill="#050B14"/><rect x="114" y="71" width="30" height="6" fill="#050B14"/>
    <rect x="108" y="77" width="12" height="6" fill="#050B14"/>
    <rect x="138" y="77" width="12" height="6" fill="#050B14"/>
    <rect x="108" y="83" width="12" height="6" fill="#050B14"/>
    <rect x="138" y="83" width="12" height="6" fill="#050B14"/>
    <rect x="108" y="89" width="12" height="6" fill="#050B14"/>
    <rect x="138" y="89" width="12" height="6" fill="#050B14"/>
    <rect x="108" y="95" width="12" height="6" fill="#050B14"/>
    <rect x="138" y="95" width="12" height="6" fill="#050B14"/>
    <rect x="108" y="101" width="12" height="6" fill="#050B14"/>
    <rect x="138" y="101" width="12" height="6" fill="#050B14"/>
    <rect x="108" y="107" width="12" height="6" fill="#050B14"/>
    <rect x="138" y="107" width="12" height="6" fill="#050B14"/>
    <rect x="108" y="113" width="12" height="6" fill="#050B14"/>
    <rect x="138" y="113" width="12" height="6" fill="#050B14"/>
    <rect x="114" y="119" width="30" height="6" fill="#050B14"/><rect x="168" y="71" width="12" height="6" fill="#050B14"/>
    <rect x="198" y="71" width="12" height="6" fill="#050B14"/>
    <rect x="168" y="77" width="12" height="6" fill="#050B14"/>
    <rect x="192" y="77" width="12" height="6" fill="#050B14"/>
    <rect x="168" y="83" width="12" height="6" fill="#050B14"/>
    <rect x="186" y="83" width="12" height="6" fill="#050B14"/>
    <rect x="168" y="89" width="24" height="6" fill="#050B14"/>
    <rect x="168" y="95" width="30" height="6" fill="#050B14"/>
    <rect x="168" y="101" width="12" height="6" fill="#050B14"/>
    <rect x="186" y="101" width="18" height="6" fill="#050B14"/>
    <rect x="168" y="107" width="12" height="6" fill="#050B14"/>
    <rect x="192" y="107" width="12" height="6" fill="#050B14"/>
    <rect x="168" y="113" width="12" height="6" fill="#050B14"/>
    <rect x="198" y="113" width="12" height="6" fill="#050B14"/>
    <rect x="168" y="119" width="12" height="6" fill="#050B14"/>
    <rect x="204" y="119" width="6" height="6" fill="#050B14"/><rect x="228" y="71" width="12" height="6" fill="#050B14"/>
    <rect x="258" y="71" width="12" height="6" fill="#050B14"/>
    <rect x="228" y="77" width="18" height="6" fill="#050B14"/>
    <rect x="252" y="77" width="18" height="6" fill="#050B14"/>
    <rect x="228" y="83" width="42" height="6" fill="#050B14"/>
    <rect x="228" y="89" width="12" height="6" fill="#050B14"/>
    <rect x="246" y="89" width="6" height="6" fill="#050B14"/>
    <rect x="258" y="89" width="12" height="6" fill="#050B14"/>
    <rect x="228" y="95" width="12" height="6" fill="#050B14"/>
    <rect x="258" y="95" width="12" height="6" fill="#050B14"/>
    <rect x="228" y="101" width="12" height="6" fill="#050B14"/>
    <rect x="258" y="101" width="12" height="6" fill="#050B14"/>
    <rect x="228" y="107" width="12" height="6" fill="#050B14"/>
    <rect x="258" y="107" width="12" height="6" fill="#050B14"/>
    <rect x="228" y="113" width="12" height="6" fill="#050B14"/>
    <rect x="258" y="113" width="12" height="6" fill="#050B14"/>
    <rect x="228" y="119" width="12" height="6" fill="#050B14"/>
    <rect x="258" y="119" width="12" height="6" fill="#050B14"/>
    <rect x="45" y="68" width="42" height="6" fill="#005577"/>
    <rect x="45" y="74" width="42" height="6" fill="#005577"/>
    <rect x="63" y="80" width="12" height="6" fill="#005577"/>
    <rect x="63" y="86" width="12" height="6" fill="#005577"/>
    <rect x="63" y="92" width="12" height="6" fill="#005577"/>
    <rect x="63" y="98" width="12" height="6" fill="#005577"/>
    <rect x="63" y="104" width="12" height="6" fill="#005577"/>
    <rect x="63" y="110" width="12" height="6" fill="#005577"/>
    <rect x="63" y="116" width="12" height="6" fill="#005577"/><rect x="111" y="68" width="30" height="6" fill="#005577"/>
    <rect x="105" y="74" width="12" height="6" fill="#005577"/>
    <rect x="135" y="74" width="12" height="6" fill="#005577"/>
    <rect x="105" y="80" width="12" height="6" fill="#005577"/>
    <rect x="135" y="80" width="12" height="6" fill="#005577"/>
    <rect x="105" y="86" width="12" height="6" fill="#005577"/>
    <rect x="135" y="86" width="12" height="6" fill="#005577"/>
    <rect x="105" y="92" width="12" height="6" fill="#005577"/>
    <rect x="135" y="92" width="12" height="6" fill="#005577"/>
    <rect x="105" y="98" width="12" height="6" fill="#005577"/>
    <rect x="135" y="98" width="12" height="6" fill="#005577"/>
    <rect x="105" y="104" width="12" height="6" fill="#005577"/>
    <rect x="135" y="104" width="12" height="6" fill="#005577"/>
    <rect x="105" y="110" width="12" height="6" fill="#005577"/>
    <rect x="135" y="110" width="12" height="6" fill="#005577"/>
    <rect x="111" y="116" width="30" height="6" fill="#005577"/><rect x="165" y="68" width="12" height="6" fill="#005577"/>
    <rect x="195" y="68" width="12" height="6" fill="#005577"/>
    <rect x="165" y="74" width="12" height="6" fill="#005577"/>
    <rect x="189" y="74" width="12" height="6" fill="#005577"/>
    <rect x="165" y="80" width="12" height="6" fill="#005577"/>
    <rect x="183" y="80" width="12" height="6" fill="#005577"/>
    <rect x="165" y="86" width="24" height="6" fill="#005577"/>
    <rect x="165" y="92" width="30" height="6" fill="#005577"/>
    <rect x="165" y="98" width="12" height="6" fill="#005577"/>
    <rect x="183" y="98" width="18" height="6" fill="#005577"/>
    <rect x="165" y="104" width="12" height="6" fill="#005577"/>
    <rect x="189" y="104" width="12" height="6" fill="#005577"/>
    <rect x="165" y="110" width="12" height="6" fill="#005577"/>
    <rect x="195" y="110" width="12" height="6" fill="#005577"/>
    <rect x="165" y="116" width="12" height="6" fill="#005577"/>
    <rect x="201" y="116" width="6" height="6" fill="#005577"/><rect x="225" y="68" width="12" height="6" fill="#005577"/>
    <rect x="255" y="68" width="12" height="6" fill="#005577"/>
    <rect x="225" y="74" width="18" height="6" fill="#005577"/>
    <rect x="249" y="74" width="18" height="6" fill="#005577"/>
    <rect x="225" y="80" width="42" height="6" fill="#005577"/>
    <rect x="225" y="86" width="12" height="6" fill="#005577"/>
    <rect x="243" y="86" width="6" height="6" fill="#005577"/>
    <rect x="255" y="86" width="12" height="6" fill="#005577"/>
    <rect x="225" y="92" width="12" height="6" fill="#005577"/>
    <rect x="255" y="92" width="12" height="6" fill="#005577"/>
    <rect x="225" y="98" width="12" height="6" fill="#005577"/>
    <rect x="255" y="98" width="12" height="6" fill="#005577"/>
    <rect x="225" y="104" width="12" height="6" fill="#005577"/>
    <rect x="255" y="104" width="12" height="6" fill="#005577"/>
    <rect x="225" y="110" width="12" height="6" fill="#005577"/>
    <rect x="255" y="110" width="12" height="6" fill="#005577"/>
    <rect x="225" y="116" width="12" height="6" fill="#005577"/>
    <rect x="255" y="116" width="12" height="6" fill="#005577"/>
    <rect x="42" y="65" width="42" height="6" fill="#00F0FF"/>
    <rect x="42" y="71" width="42" height="6" fill="#00F0FF"/>
    <rect x="60" y="77" width="12" height="6" fill="#00F0FF"/>
    <rect x="60" y="83" width="12" height="6" fill="#00F0FF"/>
    <rect x="60" y="89" width="12" height="6" fill="#00F0FF"/>
    <rect x="60" y="95" width="12" height="6" fill="#00F0FF"/>
    <rect x="60" y="101" width="12" height="6" fill="#00F0FF"/>
    <rect x="60" y="107" width="12" height="6" fill="#00F0FF"/>
    <rect x="60" y="113" width="12" height="6" fill="#00F0FF"/><rect x="108" y="65" width="30" height="6" fill="#00F0FF"/>
    <rect x="102" y="71" width="12" height="6" fill="#00F0FF"/>
    <rect x="132" y="71" width="12" height="6" fill="#00F0FF"/>
    <rect x="102" y="77" width="12" height="6" fill="#00F0FF"/>
    <rect x="132" y="77" width="12" height="6" fill="#00F0FF"/>
    <rect x="102" y="83" width="12" height="6" fill="#00F0FF"/>
    <rect x="132" y="83" width="12" height="6" fill="#00F0FF"/>
    <rect x="102" y="89" width="12" height="6" fill="#00F0FF"/>
    <rect x="132" y="89" width="12" height="6" fill="#00F0FF"/>
    <rect x="102" y="95" width="12" height="6" fill="#00F0FF"/>
    <rect x="132" y="95" width="12" height="6" fill="#00F0FF"/>
    <rect x="102" y="101" width="12" height="6" fill="#00F0FF"/>
    <rect x="132" y="101" width="12" height="6" fill="#00F0FF"/>
    <rect x="102" y="107" width="12" height="6" fill="#00F0FF"/>
    <rect x="132" y="107" width="12" height="6" fill="#00F0FF"/>
    <rect x="108" y="113" width="30" height="6" fill="#00F0FF"/><rect x="162" y="65" width="12" height="6" fill="#00F0FF"/>
    <rect x="192" y="65" width="12" height="6" fill="#00F0FF"/>
    <rect x="162" y="71" width="12" height="6" fill="#00F0FF"/>
    <rect x="186" y="71" width="12" height="6" fill="#00F0FF"/>
    <rect x="162" y="77" width="12" height="6" fill="#00F0FF"/>
    <rect x="180" y="77" width="12" height="6" fill="#00F0FF"/>
    <rect x="162" y="83" width="24" height="6" fill="#00F0FF"/>
    <rect x="162" y="89" width="30" height="6" fill="#00F0FF"/>
    <rect x="162" y="95" width="12" height="6" fill="#00F0FF"/>
    <rect x="180" y="95" width="18" height="6" fill="#00F0FF"/>
    <rect x="162" y="101" width="12" height="6" fill="#00F0FF"/>
    <rect x="186" y="101" width="12" height="6" fill="#00F0FF"/>
    <rect x="162" y="107" width="12" height="6" fill="#00F0FF"/>
    <rect x="192" y="107" width="12" height="6" fill="#00F0FF"/>
    <rect x="162" y="113" width="12" height="6" fill="#00F0FF"/>
    <rect x="198" y="113" width="6" height="6" fill="#00F0FF"/><rect x="222" y="65" width="12" height="6" fill="#00F0FF"/>
    <rect x="252" y="65" width="12" height="6" fill="#00F0FF"/>
    <rect x="222" y="71" width="18" height="6" fill="#00F0FF"/>
    <rect x="246" y="71" width="18" height="6" fill="#00F0FF"/>
    <rect x="222" y="77" width="42" height="6" fill="#00F0FF"/>
    <rect x="222" y="83" width="12" height="6" fill="#00F0FF"/>
    <rect x="240" y="83" width="6" height="6" fill="#00F0FF"/>
    <rect x="252" y="83" width="12" height="6" fill="#00F0FF"/>
    <rect x="222" y="89" width="12" height="6" fill="#00F0FF"/>
    <rect x="252" y="89" width="12" height="6" fill="#00F0FF"/>
    <rect x="222" y="95" width="12" height="6" fill="#00F0FF"/>
    <rect x="252" y="95" width="12" height="6" fill="#00F0FF"/>
    <rect x="222" y="101" width="12" height="6" fill="#00F0FF"/>
    <rect x="252" y="101" width="12" height="6" fill="#00F0FF"/>
    <rect x="222" y="107" width="12" height="6" fill="#00F0FF"/>
    <rect x="252" y="107" width="12" height="6" fill="#00F0FF"/>
    <rect x="222" y="113" width="12" height="6" fill="#00F0FF"/>
    <rect x="252" y="113" width="12" height="6" fill="#00F0FF"/>
  </g>

  <!-- SUB-BADGE: DISCIPLINE NAME -->
  <g transform="translate(42, 130)">
    <rect x="0" y="0" width="460" height="26" fill="#0F1A2E" stroke="#BD93F9" stroke-width="2"/>
    <rect x="-2" y="-2" width="6" height="6" fill="#BD93F9"/>
    <rect x="456" y="-2" width="6" height="6" fill="#BD93F9"/>
    <rect x="-2" y="22" width="6" height="6" fill="#BD93F9"/>
    <rect x="456" y="22" width="6" height="6" fill="#BD93F9"/>
    <text x="12" y="18" fill="#F8F8F2" font-size="11" font-weight="bold" letter-spacing="1" class="font-mono">
      💠 ТЕОРЕТИЧЕСКИЕ ОСНОВЫ КОМПЬЮТЕРНОГО МОДЕЛИРОВАНИЯ
    </text>
  </g>

  <!-- TELETYPE SPECS (Left Block) -->
  <g transform="translate(42, 175)">
    <text x="0" y="0" fill="#39FF14" font-size="12" font-weight="bold" class="font-mono">&gt;</text>
    <text x="18" y="0" fill="#E2E8F0" font-size="11" class="font-mono">3D RENDERING:</text>
    <text x="145" y="0" fill="#00F0FF" font-size="11" font-weight="bold" class="font-mono">GLScene Core + OpenGL Hardware</text>

    <text x="0" y="22" fill="#39FF14" font-size="12" font-weight="bold" class="font-mono">&gt;</text>
    <text x="18" y="22" fill="#E2E8F0" font-size="11" class="font-mono">MESH &amp; TOPOLOGY:</text>
    <text x="145" y="22" fill="#BD93F9" font-size="11" font-weight="bold" class="font-mono">TetGen 1.5 Delaunay &amp; Voronoi</text>

    <text x="0" y="44" fill="#39FF14" font-size="12" font-weight="bold" class="font-mono">&gt;</text>
    <text x="18" y="44" fill="#E2E8F0" font-size="11" class="font-mono">PHYSICS ENGINE:</text>
    <text x="145" y="44" fill="#FFE600" font-size="11" font-weight="bold" class="font-mono">Newton Dynamics + Impulse Solver</text>

    <rect x="450" y="34" width="8" height="12" fill="#00F0FF" class="cursor-blink"/>
  </g>

  <!-- RIGHT SIDE: 3D WIREFRAME SIMULATION SCENE -->
  <g>
    <circle cx="700" cy="130" r="85" fill="#00F0FF" opacity="0.05"/>
    
    <!-- 3D Perspective Lines / Wireframe Ground -->
    <g stroke="#1E293B" stroke-width="1" opacity="0.4">
      <line x1="610" y1="210" x2="810" y2="210"/>
      <line x1="625" y1="225" x2="795" y2="225"/>
      <line x1="650" y1="170" x2="610" y2="235"/>
      <line x1="750" y1="170" x2="790" y2="235"/>
      <line x1="700" y1="170" x2="700" y2="235"/>
    </g>

    <!-- Pixel Scene Elements -->
    <rect x="701" y="59" width="8" height="4" fill="#00F0FF"/>
    <rect x="697" y="63" width="16" height="4" fill="#00F0FF"/>
    <rect x="693" y="67" width="8" height="4" fill="#00F0FF"/>
    <rect x="709" y="67" width="8" height="4" fill="#00F0FF"/>
    <rect x="689" y="71" width="8" height="4" fill="#00F0FF"/>
    <rect x="713" y="71" width="8" height="4" fill="#00F0FF"/>
    <rect x="685" y="75" width="8" height="4" fill="#00F0FF"/>
    <rect x="717" y="75" width="8" height="4" fill="#00F0FF"/>
    <rect x="681" y="79" width="8" height="4" fill="#00F0FF"/>
    <rect x="697" y="79" width="8" height="4" fill="#BD93F9"/>
    <rect x="721" y="79" width="8" height="4" fill="#00F0FF"/>
    <rect x="677" y="83" width="8" height="4" fill="#00F0FF"/>
    <rect x="693" y="83" width="16" height="4" fill="#BD93F9"/>
    <rect x="725" y="83" width="8" height="4" fill="#00F0FF"/>
    <rect x="673" y="87" width="8" height="4" fill="#00F0FF"/>
    <rect x="689" y="87" width="8" height="4" fill="#BD93F9"/>
    <rect x="705" y="87" width="8" height="4" fill="#BD93F9"/>
    <rect x="729" y="87" width="8" height="4" fill="#00F0FF"/>
    <rect x="753" y="87" width="16" height="4" fill="#FFE600"/>
    <rect x="669" y="91" width="8" height="4" fill="#00F0FF"/>
    <rect x="685" y="91" width="8" height="4" fill="#BD93F9"/>
    <rect x="709" y="91" width="8" height="4" fill="#BD93F9"/>
    <rect x="733" y="91" width="8" height="4" fill="#00F0FF"/>
    <rect x="749" y="91" width="24" height="4" fill="#FFE600"/>
    <rect x="665" y="95" width="8" height="4" fill="#00F0FF"/>
    <rect x="681" y="95" width="8" height="4" fill="#BD93F9"/>
    <rect x="697" y="95" width="8" height="4" fill="#39FF14"/>
    <rect x="713" y="95" width="8" height="4" fill="#BD93F9"/>
    <rect x="737" y="95" width="8" height="4" fill="#00F0FF"/>
    <rect x="745" y="95" width="8" height="4" fill="#FFE600"/>
    <rect x="753" y="95" width="16" height="4" fill="#FFFFFF"/>
    <rect x="769" y="95" width="8" height="4" fill="#FFE600"/>
    <rect x="661" y="99" width="8" height="4" fill="#00F0FF"/>
    <rect x="677" y="99" width="8" height="4" fill="#BD93F9"/>
    <rect x="693" y="99" width="16" height="4" fill="#39FF14"/>
    <rect x="717" y="99" width="8" height="4" fill="#BD93F9"/>
    <rect x="741" y="99" width="4" height="4" fill="#00F0FF"/>
    <rect x="745" y="99" width="4" height="4" fill="#FFE600"/>
    <rect x="749" y="99" width="24" height="4" fill="#FFFFFF"/>
    <rect x="773" y="99" width="4" height="4" fill="#FFE600"/>
    <rect x="657" y="103" width="8" height="4" fill="#00F0FF"/>
    <rect x="673" y="103" width="8" height="4" fill="#BD93F9"/>
    <rect x="689" y="103" width="8" height="4" fill="#39FF14"/>
    <rect x="705" y="103" width="8" height="4" fill="#39FF14"/>
    <rect x="721" y="103" width="8" height="4" fill="#BD93F9"/>
    <rect x="737" y="103" width="8" height="4" fill="#00F0FF"/>
    <rect x="745" y="103" width="8" height="4" fill="#FFE600"/>
    <rect x="753" y="103" width="16" height="4" fill="#FFFFFF"/>
    <rect x="769" y="103" width="8" height="4" fill="#FFE600"/>
    <rect x="653" y="107" width="8" height="4" fill="#00F0FF"/>
    <rect x="669" y="107" width="8" height="4" fill="#BD93F9"/>
    <rect x="685" y="107" width="8" height="4" fill="#39FF14"/>
    <rect x="709" y="107" width="8" height="4" fill="#39FF14"/>
    <rect x="725" y="107" width="8" height="4" fill="#BD93F9"/>
    <rect x="733" y="107" width="8" height="4" fill="#00F0FF"/>
    <rect x="749" y="107" width="24" height="4" fill="#FFE600"/>
    <rect x="649" y="111" width="8" height="4" fill="#00F0FF"/>
    <rect x="665" y="111" width="8" height="4" fill="#BD93F9"/>
    <rect x="681" y="111" width="8" height="4" fill="#39FF14"/>
    <rect x="713" y="111" width="8" height="4" fill="#39FF14"/>
    <rect x="729" y="111" width="8" height="4" fill="#00F0FF"/>
    <rect x="753" y="111" width="16" height="4" fill="#FFE600"/>
    <rect x="645" y="115" width="8" height="4" fill="#00F0FF"/>
    <rect x="661" y="115" width="8" height="4" fill="#BD93F9"/>
    <rect x="677" y="115" width="48" height="4" fill="#39FF14"/>
    <rect x="725" y="115" width="8" height="4" fill="#00F0FF"/>
    <rect x="641" y="119" width="8" height="4" fill="#00F0FF"/>
    <rect x="657" y="119" width="8" height="4" fill="#BD93F9"/>
    <rect x="673" y="119" width="48" height="4" fill="#39FF14"/>
    <rect x="721" y="119" width="8" height="4" fill="#00F0FF"/>
    <rect x="637" y="123" width="8" height="4" fill="#00F0FF"/>
    <rect x="653" y="123" width="8" height="4" fill="#BD93F9"/>
    <rect x="725" y="123" width="8" height="4" fill="#00F0FF"/>
    <rect x="633" y="127" width="8" height="4" fill="#00F0FF"/>
    <rect x="649" y="127" width="80" height="4" fill="#BD93F9"/>
    <rect x="729" y="127" width="8" height="4" fill="#00F0FF"/>
    <rect x="629" y="131" width="8" height="4" fill="#00F0FF"/>
    <rect x="733" y="131" width="8" height="4" fill="#00F0FF"/>
    <rect x="625" y="135" width="120" height="4" fill="#00F0FF"/>
    <rect x="645" y="143" width="120" height="4" fill="#94A3B8"/>
    <rect x="641" y="147" width="4" height="4" fill="#94A3B8"/>
    <rect x="765" y="147" width="4" height="4" fill="#94A3B8"/>
    <rect x="637" y="151" width="4" height="4" fill="#94A3B8"/>
    <rect x="665" y="151" width="32" height="4" fill="#FF0055"/>
    <rect x="769" y="151" width="4" height="4" fill="#94A3B8"/>
    <rect x="633" y="155" width="4" height="4" fill="#94A3B8"/>
    <rect x="661" y="155" width="40" height="4" fill="#FF0055"/>
    <rect x="733" y="155" width="8" height="4" fill="#FF7A00"/>
    <rect x="773" y="155" width="4" height="4" fill="#94A3B8"/>
    <rect x="629" y="159" width="4" height="4" fill="#94A3B8"/>
    <rect x="657" y="159" width="48" height="4" fill="#FF0055"/>
    <rect x="729" y="159" width="16" height="4" fill="#FF7A00"/>
    <rect x="777" y="159" width="4" height="4" fill="#94A3B8"/>
    <rect x="625" y="163" width="4" height="4" fill="#94A3B8"/>
    <rect x="657" y="163" width="48" height="4" fill="#FF0055"/>
    <rect x="725" y="163" width="24" height="4" fill="#FF7A00"/>
    <rect x="781" y="163" width="4" height="4" fill="#94A3B8"/>
    <rect x="625" y="167" width="4" height="4" fill="#94A3B8"/>
    <rect x="661" y="167" width="40" height="4" fill="#FF0055"/>
    <rect x="729" y="167" width="16" height="4" fill="#FF7A00"/>
    <rect x="781" y="167" width="4" height="4" fill="#94A3B8"/>
    <rect x="629" y="171" width="4" height="4" fill="#94A3B8"/>
    <rect x="665" y="171" width="32" height="4" fill="#FF0055"/>
    <rect x="777" y="171" width="4" height="4" fill="#94A3B8"/>
    <rect x="633" y="175" width="4" height="4" fill="#94A3B8"/>
    <rect x="773" y="175" width="4" height="4" fill="#94A3B8"/>
    <rect x="637" y="179" width="136" height="4" fill="#94A3B8"/>

    <!-- Spectral OBAFGKM Bar under star -->
    <g transform="translate(680, 195)">
      <rect x="0" y="0" width="16" height="6" fill="#00F0FF"/>
      <rect x="17" y="0" width="16" height="6" fill="#70A5FF"/>
      <rect x="34" y="0" width="16" height="6" fill="#FFFFFF"/>
      <rect x="51" y="0" width="16" height="6" fill="#FFF4A3"/>
      <rect x="68" y="0" width="16" height="6" fill="#FFE600"/>
      <rect x="85" y="0" width="16" height="6" fill="#FF9E42"/>
      <rect x="102" y="0" width="16" height="6" fill="#FF4545"/>
    </g>
  </g>

  <!-- BOTTOM STATUS DECORATION -->
  <rect x="14" y="246" width="822" height="4" fill="#00F0FF" opacity="0.4"/>
</svg>